<svg width="500" height="500" viewBox="0 0 500 500" fill="none" xmlns="http://www.w3.org/2000/svg">
<g clip-path="url(#clip0_8_7)">
<path d="M441.23 486.379C452.945 498.095 471.94 498.095 483.656 486.379C495.372 474.663 495.372 455.668 483.656 443.953L441.23 486.379ZM483.656 443.953L379.014 339.311L336.588 381.737L441.23 486.379L483.656 443.953Z" fill="#8080F2"/>
<path d="M159.743 149.857L255.316 124.264C256.492 123.949 257.729 123.949 258.905 124.264C260.081 124.579 261.153 125.198 262.013 126.058L331.986 196.01C332.846 196.87 333.465 197.942 333.78 199.117C334.095 200.292 334.095 201.529 333.781 202.704L308.18 298.249C307.539 300.639 305.669 302.506 303.278 303.149L207.705 328.742C206.529 329.057 205.291 329.057 204.115 328.742C202.94 328.427 201.868 327.808 201.007 326.947L131.035 256.996C130.175 256.136 129.556 255.064 129.241 253.889C128.925 252.714 128.925 251.477 129.24 250.302L154.841 154.756C155.484 152.364 157.351 150.5 159.743 149.857Z" fill="#8080F2"/>
<path d="M448.193 276.171L395.325 77.4659C393.397 70.2775 387.984 63.9046 380.793 61.9776L182.784 8.92143C175.593 6.99443 167.716 9.80644 162.452 15.0679L17.4171 160.338C12.1529 165.601 10.0471 173.46 11.9746 180.65L65.2194 377.944C67.1473 385.132 72.9409 390.096 80.1326 392.023L278.139 445.078C285.331 447.005 292.803 445.699 298.065 440.435L442.9 295.919C448.167 290.66 450.123 283.36 448.191 276.171L448.193 276.171ZM344.028 336.999C343.35 339.529 341.199 341.463 338.665 342.143L193.068 381.084C191.815 381.415 190.498 381.412 189.246 381.077C187.995 380.742 186.853 380.085 185.934 379.172L79.2165 272.624C77.3629 270.769 76.4546 268.016 77.1334 265.483L116.111 120.017C116.79 117.483 118.93 115.55 121.464 114.871L267.055 75.9261C268.307 75.5939 269.624 75.5955 270.876 75.9308C272.127 76.2661 273.269 76.9234 274.187 77.8371L380.911 184.389C382.768 186.245 383.685 188.998 383.006 191.531L344.028 336.999Z" fill="#4B32C3"/>
</g>
<defs>
<clipPath id="clip0_8_7">
<rect width="500" height="500" fill="white"/>
</clipPath>
</defs>
</svg>
